<svg width="107" height="107" viewBox="0 0 107 107" fill="none" xmlns="http://www.w3.org/2000/svg">
<circle cx="53.5069" cy="53.4332" r="50.1665" stroke="white" stroke-width="6"/>
<path d="M84.749 72.9112H78.1709V66.3731C78.1709 66.0135 77.8748 65.7193 77.513 65.7193H73.5662C73.2044 65.7193 72.9083 66.0135 72.9083 66.3731V72.9112H66.3302C65.9684 72.9112 65.6724 73.2054 65.6724 73.565V77.4878C65.6724 77.8474 65.9684 78.1417 66.3302 78.1417H72.9083V84.6797C72.9083 85.0393 73.2044 85.3336 73.5662 85.3336H77.513C77.8748 85.3336 78.1709 85.0393 78.1709 84.6797V78.1417H84.749C85.1108 78.1417 85.4068 77.8474 85.4068 77.4878V73.565C85.4068 73.2054 85.1108 72.9112 84.749 72.9112ZM42.1145 50.5509C42.0405 49.8399 41.9993 49.1207 41.9993 48.3933C41.9993 47.0939 42.1227 45.8271 42.3529 44.5931C42.4105 44.2988 42.2542 43.9965 41.9829 43.8739C40.8646 43.3753 39.8368 42.6888 38.9487 41.8225C37.9023 40.8141 37.0789 39.5999 36.531 38.2575C35.9831 36.9151 35.7227 35.4739 35.7666 34.0259C35.8406 31.4024 36.9013 28.9098 38.7514 27.0301C40.7824 24.9624 43.5123 23.8346 46.4149 23.8673C49.0379 23.8918 51.5705 24.897 53.4864 26.6787C54.136 27.2834 54.6951 27.9536 55.1638 28.6728C55.3283 28.9261 55.649 29.0324 55.9285 28.9343C57.3757 28.4358 58.9051 28.0844 60.4757 27.9209C60.9361 27.8719 61.1993 27.3815 60.9937 26.9729C58.3213 21.7179 52.8615 18.0892 46.5465 17.9912C37.4358 17.8522 29.838 25.2812 29.838 34.3364C29.838 39.4688 32.2144 44.0455 35.9392 47.0448C33.3244 48.2462 30.9152 49.9053 28.8266 51.9811C24.3206 56.4515 21.7716 62.3522 21.6071 68.6532C21.6049 68.7405 21.6203 68.8272 21.6524 68.9085C21.6845 68.9897 21.7326 69.0637 21.7939 69.1262C21.8552 69.1886 21.9285 69.2382 22.0094 69.2721C22.0903 69.306 22.1772 69.3234 22.265 69.3234H26.8779C27.2314 69.3234 27.5275 69.0455 27.5357 68.6941C27.6919 63.954 29.6242 59.5163 33.0202 56.1491C35.4377 53.7464 38.3978 52.0792 41.6293 51.2701C41.9418 51.1802 42.1556 50.8778 42.1145 50.5509ZM79.1576 48.3933C79.1576 39.4525 71.9298 32.187 62.9671 32.0481C53.8564 31.9091 46.2669 39.3381 46.2669 48.3933C46.2669 53.5257 48.6515 58.1024 52.3681 61.1017C49.7262 62.3189 47.3212 63.99 45.2637 66.038C40.7577 70.5084 38.2087 76.4091 38.0442 82.702C38.0421 82.7892 38.0574 82.876 38.0895 82.9572C38.1216 83.0384 38.1697 83.1124 38.231 83.1749C38.2923 83.2373 38.3656 83.287 38.4465 83.3208C38.5274 83.3547 38.6143 83.3722 38.7021 83.3721H43.3068C43.6603 83.3721 43.9563 83.0943 43.9646 82.7428C44.1208 78.0027 46.0531 73.565 49.4491 70.1979C52.9931 66.6755 57.6964 64.7386 62.7122 64.7386C71.7901 64.7386 79.1576 57.4241 79.1576 48.3933ZM70.1538 55.7895C68.1639 57.7673 65.5244 58.8543 62.7122 58.8543C59.9001 58.8543 57.2606 57.7673 55.2707 55.7895C54.2777 54.8078 53.4932 53.6378 52.9635 52.3491C52.4338 51.0604 52.1699 49.6791 52.1872 48.2871C52.2119 45.6065 53.2891 43.0157 55.1721 41.0952C57.1455 39.0847 59.785 37.9651 62.6053 37.9324C65.3928 37.9078 68.0981 38.9866 70.088 40.9235C72.1272 42.9095 73.2455 45.5656 73.2455 48.3933C73.2373 51.1884 72.1436 53.8118 70.1538 55.7895Z" fill="white"/>
</svg>
