<svg width="129" height="145" viewBox="0 0 129 145" fill="none" xmlns="http://www.w3.org/2000/svg">
<path d="M43.5375 108.75L64.5 87.8055L85.4625 108.75L96.75 97.4722L75.7875 76.5278L96.75 55.5833L85.4625 44.3055L64.5 65.25L43.5375 44.3055L32.25 55.5833L53.2125 76.5278L32.25 97.4722L43.5375 108.75ZM24.1875 145C19.7531 145 15.9557 143.421 12.7952 140.263C9.63469 137.106 8.05713 133.314 8.0625 128.889V24.1667H0V8.05555H40.3125V0H88.6875V8.05555H129V24.1667H120.938V128.889C120.938 133.319 119.357 137.114 116.197 140.271C113.036 143.429 109.242 145.005 104.812 145H24.1875ZM104.812 24.1667H24.1875V128.889H104.812V24.1667Z" fill="#FF0000"/>
</svg>
