<svg width="61" height="71" viewBox="0 0 61 71" fill="none" xmlns="http://www.w3.org/2000/svg">
<path d="M50.4993 25.0588H43.5714V4.17647C43.5714 1.87941 41.6107 0 39.2143 0H21.7857C19.3893 0 17.4286 1.87941 17.4286 4.17647V25.0588H10.5007C6.62286 25.0588 4.66214 29.5694 7.40714 32.2006L27.4064 51.3706C29.1057 52.9994 31.8507 52.9994 33.55 51.3706L53.5493 32.2006C56.2943 29.5694 54.3771 25.0588 50.4993 25.0588ZM0 66.8235C0 69.1206 1.96071 71 4.35714 71H56.6429C59.0393 71 61 69.1206 61 66.8235C61 64.5265 59.0393 62.6471 56.6429 62.6471H4.35714C1.96071 62.6471 0 64.5265 0 66.8235Z" fill="#231F20"/>
</svg>
