<svg width="78" height="63" viewBox="0 0 78 63" fill="none" xmlns="http://www.w3.org/2000/svg">
<path d="M25.0714 0C22.855 0 20.7293 0.829685 19.162 2.30653C17.5948 3.78338 16.7143 5.78642 16.7143 7.875V10.5H11.1429C8.18759 10.5 5.35336 11.6062 3.26367 13.5754C1.17398 15.5445 0 18.2152 0 21V44.625C0 46.7136 0.880482 48.7166 2.44775 50.1935C4.01502 51.6703 6.14069 52.5 8.35714 52.5H16.7143V55.125C16.7143 57.2136 17.5948 59.2166 19.162 60.6935C20.7293 62.1703 22.855 63 25.0714 63H53.4857C55.7022 63 57.8278 62.1703 59.3951 60.6935C60.9624 59.2166 61.8429 57.2136 61.8429 55.125V52.5H69.6429C71.8593 52.5 73.985 51.6703 75.5523 50.1935C77.1195 48.7166 78 46.7136 78 44.625V21C78 18.2152 76.826 15.5445 74.7363 13.5754C72.6466 11.6062 69.8124 10.5 66.8571 10.5H61.2857V7.875C61.2857 5.78642 60.4052 3.78338 58.838 2.30653C57.2707 0.829685 55.145 0 52.9286 0H25.0714ZM55.7143 10.5H22.2857V7.875C22.2857 7.17881 22.5792 6.51113 23.1016 6.01885C23.6241 5.52656 24.3326 5.25 25.0714 5.25H52.9286C53.6674 5.25 54.376 5.52656 54.8984 6.01885C55.4208 6.51113 55.7143 7.17881 55.7143 7.875V10.5ZM25.0714 42H53.4857C54.2245 42 54.9331 42.2766 55.4555 42.7688C55.9779 43.2611 56.2714 43.9288 56.2714 44.625V55.125C56.2714 55.8212 55.9779 56.4889 55.4555 56.9812C54.9331 57.4734 54.2245 57.75 53.4857 57.75H25.0714C24.3326 57.75 23.6241 57.4734 23.1016 56.9812C22.5792 56.4889 22.2857 55.8212 22.2857 55.125V44.625C22.2857 43.9288 22.5792 43.2611 23.1016 42.7688C23.6241 42.2766 24.3326 42 25.0714 42Z" fill="#231F20"/>
</svg>
