<svg width="107" height="107" viewBox="0 0 107 107" fill="none" xmlns="http://www.w3.org/2000/svg">
<circle cx="53.6011" cy="53.4332" r="50.1665" stroke="white" stroke-width="6"/>
<path d="M40.6048 78.2442H59.5085M40.6048 78.2442V62.4911M40.6048 78.2442H23.5915C23.0902 78.2442 22.6094 78.045 22.2548 77.6905C21.9003 77.336 21.7012 76.8552 21.7012 76.3538V64.3815C21.7012 63.8802 21.9003 63.3993 22.2548 63.0448C22.6094 62.6903 23.0902 62.4911 23.5915 62.4911H40.6048M59.5085 78.2442V40.4369M59.5085 78.2442H76.5218C77.0231 78.2442 77.504 78.045 77.8585 77.6905C78.213 77.336 78.4122 76.8552 78.4122 76.3538V23.4236C78.4122 22.9222 78.213 22.4414 77.8585 22.0869C77.504 21.7324 77.0231 21.5332 76.5218 21.5332H61.3989C60.8975 21.5332 60.4167 21.7324 60.0622 22.0869C59.7077 22.4414 59.5085 22.9222 59.5085 23.4236V40.4369M40.6048 62.4911V42.3272C40.6048 41.8259 40.804 41.3451 41.1585 40.9905C41.513 40.636 41.9938 40.4369 42.4952 40.4369H59.5085" stroke="white" stroke-width="6"/>
</svg>
