<svg width="107" height="107" viewBox="0 0 107 107" fill="none" xmlns="http://www.w3.org/2000/svg">
<path d="M74.5636 28.6221H32.5756C30.4675 28.6221 28.7585 30.331 28.7585 32.4392V74.4271C28.7585 76.5353 30.4675 78.2442 32.5756 78.2442H74.5636C76.6718 78.2442 78.3807 76.5353 78.3807 74.4271V32.4392C78.3807 30.331 76.6718 28.6221 74.5636 28.6221Z" stroke="white" stroke-width="6" stroke-linecap="round" stroke-linejoin="round"/>
<path d="M28.7585 56.9775H42.1183C43.1307 56.9775 44.1016 57.4755 44.8174 58.3617C45.5333 59.248 45.9354 60.45 45.9354 61.7035C45.9354 64.2102 46.7397 66.6142 48.1714 68.3868C49.6031 70.1595 51.5449 71.1553 53.5696 71.1553C55.5943 71.1553 57.5361 70.1595 58.9678 68.3868C60.3995 66.6142 61.2038 64.2102 61.2038 61.7035C61.2038 60.45 61.6059 59.248 62.3218 58.3617C63.0376 57.4755 64.0085 56.9775 65.0209 56.9775H78.3807" stroke="white" stroke-width="6" stroke-linecap="round" stroke-linejoin="round"/>
<circle cx="53.5696" cy="53.4332" r="50.1665" stroke="white" stroke-width="6"/>
</svg>
